<?xml version="1.0" encoding="utf-8"?>
<!-- Generator: Adobe Illustrator 19.0.1, SVG Export Plug-In . SVG Version: 6.00 Build 0)  -->
<svg version="1.1" id="Layer_1" xmlns="http://www.w3.org/2000/svg" xmlns:xlink="http://www.w3.org/1999/xlink" x="0px" y="0px"
	 viewBox="0 0 304 182" style="enable-background:new 0 0 304 182;" xml:space="preserve">
<style type="text/css">
	.st0{fill:#252F3E;}
	.st1{fill-rule:evenodd;clip-rule:evenodd;transform:rotate(90deg);}
	.svg {
        animation: appear 5s linear infinite;
		opacity: 0;
		transform: rotate(-240deg) !important;
    }
    @keyframes appear {
        41%{
            opacity: 0;
        }
        42%{
            opacity: 1;
        }
        99%{
            opacity: 1;
        }
        100%{
            opacity: 0;
        }
    }
</style>
<linearGradient id="red-fill" x1="0.5" y1="1" x2="0.5" y2="0">
    <stop offset="100%" stop-opacity="1" stop-color="#FF9900">
        <animate id="op" attributeName="offset" values="0;1" dur="2s" begin="0s;op.end+3s"/>
    </stop>
    <stop offset="100%" stop-opacity="0" stop-color="#FF9900">
        <animate id="op2" attributeName="offset" values="0;1" dur="2s"  begin="0s;op2.end+3s"/>
    </stop>
</linearGradient>
<linearGradient id="red-fill2" x1="0.5" y1="1" x2="0.5" y2="0">
    <stop offset="100%" stop-opacity="1" stop-color="#FF9900">
        <animate id="op1" attributeName="offset" values="0;1" dur="1s" begin="2s;op1.end+4s"/>
    </stop>
    <stop offset="100%" stop-opacity="0" stop-color="#FF9900">
        <animate id="op21" attributeName="offset" values="0;1" dur="1s"  begin="2s;op21.end+4s"/>
    </stop>
</linearGradient>
<g>
	<path class="st0" d="M86.4,66.4c0,3.7,0.4,6.7,1.1,8.9c0.8,2.2,1.8,4.6,3.2,7.2c0.5,0.8,0.7,1.6,0.7,2.3c0,1-0.6,2-1.9,3l-6.3,4.2
		c-0.9,0.6-1.8,0.9-2.6,0.9c-1,0-2-0.5-3-1.4C76.2,90,75,88.4,74,86.8c-1-1.7-2-3.6-3.1-5.9c-7.8,9.2-17.6,13.8-29.4,13.8
		c-8.4,0-15.1-2.4-20-7.2c-4.9-4.8-7.4-11.2-7.4-19.2c0-8.5,3-15.4,9.1-20.6c6.1-5.2,14.2-7.8,24.5-7.8c3.4,0,6.9,0.3,10.6,0.8
		c3.7,0.5,7.5,1.3,11.5,2.2v-7.3c0-7.6-1.6-12.9-4.7-16c-3.2-3.1-8.6-4.6-16.3-4.6c-3.5,0-7.1,0.4-10.8,1.3c-3.7,0.9-7.3,2-10.8,3.4
		c-1.6,0.7-2.8,1.1-3.5,1.3c-0.7,0.2-1.2,0.3-1.6,0.3c-1.4,0-2.1-1-2.1-3.1v-4.9c0-1.6,0.2-2.8,0.7-3.5c0.5-0.7,1.4-1.4,2.8-2.1
		c3.5-1.8,7.7-3.3,12.6-4.5c4.9-1.3,10.1-1.9,15.6-1.9c11.9,0,20.6,2.7,26.2,8.1c5.5,5.4,8.3,13.6,8.3,24.6V66.4z M45.8,81.6
		c3.3,0,6.7-0.6,10.3-1.8c3.6-1.2,6.8-3.4,9.5-6.4c1.6-1.9,2.8-4,3.4-6.4c0.6-2.4,1-5.3,1-8.7v-4.2c-2.9-0.7-6-1.3-9.2-1.7
		c-3.2-0.4-6.3-0.6-9.4-0.6c-6.7,0-11.6,1.3-14.9,4c-3.3,2.7-4.9,6.5-4.9,11.5c0,4.7,1.2,8.2,3.7,10.6
		C37.7,80.4,41.2,81.6,45.8,81.6z M126.1,92.4c-1.8,0-3-0.3-3.8-1c-0.8-0.6-1.5-2-2.1-3.9L96.7,10.2c-0.6-2-0.9-3.3-0.9-4
		c0-1.6,0.8-2.5,2.4-2.5h9.8c1.9,0,3.2,0.3,3.9,1c0.8,0.6,1.4,2,2,3.9l16.8,66.2l15.6-66.2c0.5-2,1.1-3.3,1.9-3.9c0.8-0.6,2.2-1,4-1
		h8c1.9,0,3.2,0.3,4,1c0.8,0.6,1.5,2,1.9,3.9l15.8,67l17.3-67c0.6-2,1.3-3.3,2-3.9c0.8-0.6,2.1-1,3.9-1h9.3c1.6,0,2.5,0.8,2.5,2.5
		c0,0.5-0.1,1-0.2,1.6c-0.1,0.6-0.3,1.4-0.7,2.5l-24.1,77.3c-0.6,2-1.3,3.3-2.1,3.9c-0.8,0.6-2.1,1-3.8,1h-8.6c-1.9,0-3.2-0.3-4-1
		c-0.8-0.7-1.5-2-1.9-4L156,23l-15.4,64.4c-0.5,2-1.1,3.3-1.9,4c-0.8,0.7-2.2,1-4,1H126.1z M254.6,95.1c-5.2,0-10.4-0.6-15.4-1.8
		c-5-1.2-8.9-2.5-11.5-4c-1.6-0.9-2.7-1.9-3.1-2.8c-0.4-0.9-0.6-1.9-0.6-2.8v-5.1c0-2.1,0.8-3.1,2.3-3.1c0.6,0,1.2,0.1,1.8,0.3
		c0.6,0.2,1.5,0.6,2.5,1c3.4,1.5,7.1,2.7,11,3.5c4,0.8,7.9,1.2,11.9,1.2c6.3,0,11.2-1.1,14.6-3.3c3.4-2.2,5.2-5.4,5.2-9.5
		c0-2.8-0.9-5.1-2.7-7c-1.8-1.9-5.2-3.6-10.1-5.2L246,52c-7.3-2.3-12.7-5.7-16-10.2c-3.3-4.4-5-9.3-5-14.5c0-4.2,0.9-7.9,2.7-11.1
		c1.8-3.2,4.2-6,7.2-8.2c3-2.3,6.4-4,10.4-5.2c4-1.2,8.2-1.7,12.6-1.7c2.2,0,4.5,0.1,6.7,0.4c2.3,0.3,4.4,0.7,6.5,1.1
		c2,0.5,3.9,1,5.7,1.6c1.8,0.6,3.2,1.2,4.2,1.8c1.4,0.8,2.4,1.6,3,2.5c0.6,0.8,0.9,1.9,0.9,3.3v4.7c0,2.1-0.8,3.2-2.3,3.2
		c-0.8,0-2.1-0.4-3.8-1.2c-5.7-2.6-12.1-3.9-19.2-3.9c-5.7,0-10.2,0.9-13.3,2.8c-3.1,1.9-4.7,4.8-4.7,8.9c0,2.8,1,5.2,3,7.1
		c2,1.9,5.7,3.8,11,5.5l14.2,4.5c7.2,2.3,12.4,5.5,15.5,9.6c3.1,4.1,4.6,8.8,4.6,14c0,4.3-0.9,8.2-2.6,11.6
		c-1.8,3.4-4.2,6.4-7.3,8.8c-3.1,2.5-6.8,4.3-11.1,5.6C264.4,94.4,259.7,95.1,254.6,95.1z"/>
	<g>
		<path fill="url(#red-fill)" class="st1" d="M143.7 -273.5c24.3 32.9 37.2 80.7 37.2 121.8c0 57.6 -21.3 109.5 -56.7 148.7c-2.8 3.1 -6.6 0.3 -4.4 -3.4
		c24.6 -42.4 39.5 -94.7 39.5 -148.8c0 -36.5 -7.6 -76.6 -23.2 -113.5C133.6 -274.2 139.7 -278.9 143.7 -273.5z"/>
		<path fill="url(#red-fill2)" class="st1 svg" d="M-32.662 -312.772c-2.577 6.337 11.648 25.376 18.124 33.992c1.946 2.571 -0.228 4.404 -3.497 2.943
		c-20.832 -9.681 -32.991 -38.341 -30.98 -43.659c2.097 -5.368 31.157 -16.834 52.774 -8.992c3.342 1.188 3.603 4.04 0.405 4.501C-6.41 -322.502 -30.172 -319.06 -32.662 -312.772z"/>
	</g>
</g>
</svg>