<svg xmlns="http://www.w3.org/2000/svg" height="94" width="100">
    <style type="text/css">
        .hid {
            animation: hid 30s linear infinite;
        }
        @keyframes hid {
            0% {
                d: path("M 20.44 13.78 c -5.283 7.733 -4.625 17.793 -0.6 26 l 0.296 0.585 l 0.2 0.37 c 0.037 0.072 0.08 0.143 0.118 0.213 c 0.07 0.13 0.14 0.255 0.2 0.383 l 0.385 0.673 l 0.22 0.37 l 0.447 0.712 l 0.2 0.3 c 0.2 0.32 0.426 0.638 0.648 0.952 c 0.005 0.008 0.012 0.017 0.018 0.025 c 0.035 0.05 0.074 0.1 0.1 0.15 c 0.192 0.27 0.4 0.536 0.6 0.8 l 0.222 0.288 l 0.545 0.682 l 0.208 0.254 a 31.65 31.65 0 0 0 0.76 0.884 l 0.016 0.016 c 0.01 0.013 0.02 0.02 0.03 0.033 a 23.73 23.73 0 0 0 0.772 0.83 l 0.248 0.254 l 0.617 0.616 l 0.252 0.244 a 34.49 34.49 0 0 0 0.845 0.783 l 0.16 0.14 l 0.767 0.66 l 0.318 0.258 l 0.64 0.5 l 0.342 0.265 l 0.978 0.715 c 0.025 0.017 0.047 0.035 0.072 0.052 c 0.23 0.16 0.463 0.315 0.697 0.47 l 0.302 0.205 l 1.092 0.68 l 0.302 0.173 l 0.82 0.468 c 0.15 0.082 0.303 0.16 0.453 0.238 l 0.586 0.3 l 0.135 0.066 l 0.24 0.118 l 0.93 0.438 l 0.197 0.1 a 32.93 32.93 0 0 0 1.084 0.459 l 0.264 0.106 l 1.023 0.386 l 0.128 0.046 a 34.62 34.62 0 0 0 1.14 0.38 l 0.275 0.084 c 0.4 0.12 0.775 0.263 1.177 0.34 C 67.457 62.6 74.88 42.218 74.88 42.218 c -6.233 8.27 -17.296 10.45 -27.778 8.023 c -0.397 -0.1 -0.782 -0.217 -1.17 -0.334 l -0.292 -0.1 c -0.378 -0.118 -0.754 -0.243 -1.126 -0.373 l -0.155 -0.057 a 35.02 35.02 0 0 1 -0.993 -0.375 l -0.28 -0.112 a 31.57 31.57 0 0 1 -1.072 -0.454 l -0.214 -0.096 l -0.904 -0.43 l -0.26 -0.128 a 30.9 30.9 0 0 1 -0.7 -0.363 l -0.467 -0.25 a 26.89 26.89 0 0 1 -0.838 -0.479 l -0.283 -0.16 c -0.368 -0.22 -0.732 -0.45 -1.092 -0.68 c -0.1 -0.065 -0.196 -0.134 -0.295 -0.2 l -0.777 -0.526 l -0.25 -0.18 l -0.735 -0.54 l -0.326 -0.25 l -0.663 -0.528 l -0.296 -0.24 l -0.825 -0.7 c -0.028 -0.025 -0.06 -0.05 -0.1 -0.077 c -0.294 -0.263 -0.583 -0.533 -0.868 -0.804 l -0.244 -0.24 l -0.624 -0.622 l -0.244 -0.25 a 31.33 31.33 0 0 1 -0.765 -0.824 c -0.012 -0.014 -0.026 -0.027 -0.038 -0.04 a 31.49 31.49 0 0 1 -0.776 -0.9 l -0.203 -0.246 l -0.56 -0.703 l -0.205 -0.26 l -0.645 -0.875 c -5.82 -8.085 -7.9 -19.235 -3.26 -28.393 M 22 22 c -3.82 5.6 -3.613 13.094 -0.633 19.016 a 24.87 24.87 0 0 0 1.69 2.873 c 0.572 0.835 1.207 1.83 1.967 2.5 c 0.275 0.3 0.563 0.6 0.857 0.906 c 0.074 0.077 0.15 0.15 0.226 0.227 a 25.21 25.21 0 0 0 0.876 0.829 c 0.012 0.01 0.023 0.022 0.036 0.032 a 26.31 26.31 0 0 0 1.031 0.87 l 0.232 0.184 a 25.13 25.13 0 0 0 1.07 0.796 a 0.6 0.6 0 0 0 0.03 0.023 c 0.16 0.113 0.325 0.22 0.488 0.328 c 0.078 0.052 0.152 0.107 0.23 0.156 a 21.65 21.65 0 0 0 0.793 0.495 l 0.112 0.066 l 0.7 0.4 c 0.082 0.047 0.166 0.088 0.25 0.132 l 0.5 0.258 c 0.025 0.013 0.05 0.023 0.074 0.035 c 0.337 0.17 0.676 0.33 1.023 0.485 c 0.074 0.033 0.15 0.063 0.226 0.095 c 0.277 0.12 0.557 0.236 0.84 0.347 l 0.36 0.134 a 26.33 26.33 0 0 0 0.77 0.273 l 0.348 0.113 c 0.367 0.117 0.73 0.263 1.113 0.328 c 19.725 3.328 22.791 -2.901 22.791 -2.901 c -6 2 -11 2 -18 -1 a 21.09 21.09 0 0 1 -0 -1 c -1 -0 -0 1 -1 0 a 22.36 22.36 0 0 1 -2 -1 l 0 0 c 0.228 -0.052 -0.563 -0.225 -0.84 -0.345 c -0.076 -0.033 -0.152 -0.063 -0.227 -0.098 a 19.53 19.53 0 0 1 -1.03 -0.487 c -0.174 -0.087 -0.345 -0.178 -0.516 -0.268 l -0.298 -0.156 a 20.05 20.05 0 0 1 -0.653 -0.375 l -0.156 -0.1 a 25.46 25.46 0 0 1 -0.79 -0.492 c -0.08 -0.052 -0.158 -0.1 -0.238 -0.162 l -0.512 -0.345 a 27.46 27.46 0 0 1 -1.066 -0.794 l -0.24 -0.192 c -3.713 -2.986 -7.434 -6.186 -9.434 -11.186 c -1.467 -4.8 -0.378 -7.493 -1 -9 m 2 8 c -2.252 3.376 -2.473 7.568 -0.9 11.296 c 1.648 3.957 5.025 7.062 8.966 8.533 c 0.162 0.062 0.325 0.117 0.5 0.173 l 0.216 0.07 c 0.232 0.074 0.463 0.16 0.702 0.206 c 10.892 2.143 11.516 -1.278 12.516 -1.278 c -5 -0 -5 1 -10 -1 c 0 -0 -0.885 -0.26 -1.3 -0.406 a 15.62 15.62 0 0 1 -1.533 -0.649 a 15.81 15.81 0 0 1 -2.688 -1.671 C 26 40 25 41 24 32")
            }
            5% {
                d: path("M 20.44 13.78 c -5.283 7.733 -4.625 17.793 -0.6 26 l 0.296 0.585 l 0.2 0.37 c 0.037 0.072 0.08 0.143 0.118 0.213 c 0.07 0.13 0.14 0.255 0.2 0.383 l 0.385 0.673 l 0.22 0.37 l 0.447 0.712 l 0.2 0.3 c 0.2 0.32 0.426 0.638 0.648 0.952 c 0.005 0.008 0.012 0.017 0.018 0.025 c 0.035 0.05 0.074 0.1 0.1 0.15 c 0.192 0.27 0.4 0.536 0.6 0.8 l 0.222 0.288 l 0.545 0.682 l 0.208 0.254 a 31.65 31.65 0 0 0 0.76 0.884 l 0.016 0.016 c 0.01 0.013 0.02 0.02 0.03 0.033 a 23.73 23.73 0 0 0 0.772 0.83 l 0.248 0.254 l 0.617 0.616 l 0.252 0.244 a 34.49 34.49 0 0 0 0.845 0.783 l 0.16 0.14 l 0.767 0.66 l 0.318 0.258 l 0.64 0.5 l 0.342 0.265 l 0.978 0.715 c 0.025 0.017 0.047 0.035 0.072 0.052 c 0.23 0.16 0.463 0.315 0.697 0.47 l 0.302 0.205 l 1.092 0.68 l 0.302 0.173 l 0.82 0.468 c 0.15 0.082 0.303 0.16 0.453 0.238 l 0.586 0.3 l 0.135 0.066 l 0.24 0.118 l 0.93 0.438 l 0.197 0.1 a 32.93 32.93 0 0 0 1.084 0.459 l 0.264 0.106 l 1.023 0.386 l 0.128 0.046 a 34.62 34.62 0 0 0 1.14 0.38 l 0.275 0.084 c 0.4 0.12 0.775 0.263 1.177 0.34 C 67.457 62.6 74.88 42.218 74.88 42.218 c -6.233 8.27 -17.296 10.45 -27.778 8.023 c -0.397 -0.1 -0.782 -0.217 -1.17 -0.334 l -0.292 -0.1 c -0.378 -0.118 -0.754 -0.243 -1.126 -0.373 l -0.155 -0.057 a 35.02 35.02 0 0 1 -0.993 -0.375 l -0.28 -0.112 a 31.57 31.57 0 0 1 -1.072 -0.454 l -0.214 -0.096 l -0.904 -0.43 l -0.26 -0.128 a 30.9 30.9 0 0 1 -0.7 -0.363 l -0.467 -0.25 a 26.89 26.89 0 0 1 -0.838 -0.479 l -0.283 -0.16 c -0.368 -0.22 -0.732 -0.45 -1.092 -0.68 c -0.1 -0.065 -0.196 -0.134 -0.295 -0.2 l -0.777 -0.526 l -0.25 -0.18 l -0.735 -0.54 l -0.326 -0.25 l -0.663 -0.528 l -0.296 -0.24 l -0.825 -0.7 c -0.028 -0.025 -0.06 -0.05 -0.1 -0.077 c -0.294 -0.263 -0.583 -0.533 -0.868 -0.804 l -0.244 -0.24 l -0.624 -0.622 l -0.244 -0.25 a 31.33 31.33 0 0 1 -0.765 -0.824 c -0.012 -0.014 -0.026 -0.027 -0.038 -0.04 a 31.49 31.49 0 0 1 -0.776 -0.9 l -0.203 -0.246 l -0.56 -0.703 l -0.205 -0.26 l -0.645 -0.875 c -5.82 -8.085 -7.9 -19.235 -3.26 -28.393 M 36.84 7.264 c -3.82 5.6 -3.613 13.094 -0.633 19.016 a 24.87 24.87 0 0 0 1.69 2.873 c 0.572 0.835 1.207 1.83 1.967 2.5 c 0.275 0.3 0.563 0.6 0.857 0.906 c 0.074 0.077 0.15 0.15 0.226 0.227 a 25.21 25.21 0 0 0 0.876 0.829 c 0.012 0.01 0.023 0.022 0.036 0.032 a 26.31 26.31 0 0 0 1.031 0.87 l 0.232 0.184 a 25.13 25.13 0 0 0 1.07 0.796 a 0.6 0.6 0 0 0 0.03 0.023 c 0.16 0.113 0.325 0.22 0.488 0.328 c 0.078 0.052 0.152 0.107 0.23 0.156 a 21.65 21.65 0 0 0 0.793 0.495 l 0.112 0.066 l 0.7 0.4 c 0.082 0.047 0.166 0.088 0.25 0.132 l 0.5 0.258 c 0.025 0.013 0.05 0.023 0.074 0.035 c 0.337 0.17 0.676 0.33 1.023 0.485 c 0.074 0.033 0.15 0.063 0.226 0.095 c 0.277 0.12 0.557 0.236 0.84 0.347 l 0.36 0.134 a 26.33 26.33 0 0 0 0.77 0.273 l 0.348 0.113 c 0.367 0.117 0.73 0.263 1.113 0.328 c 19.725 3.328 24.28 -12.14 24.28 -12.14 c -4.105 6.02 -12.054 8.894 -20.538 6.652 a 21.09 21.09 0 0 1 -1.117 -0.33 c -0.113 -0.035 -0.224 -0.072 -0.336 -0.1 a 22.36 22.36 0 0 1 -0.781 -0.274 l -0.353 -0.134 c -0.283 -0.1 -0.563 -0.225 -0.84 -0.345 c -0.076 -0.033 -0.152 -0.063 -0.227 -0.098 a 19.53 19.53 0 0 1 -1.03 -0.487 c -0.174 -0.087 -0.345 -0.178 -0.516 -0.268 l -0.298 -0.156 a 20.05 20.05 0 0 1 -0.653 -0.375 l -0.156 -0.1 a 25.46 25.46 0 0 1 -0.79 -0.492 c -0.08 -0.052 -0.158 -0.1 -0.238 -0.162 l -0.512 -0.345 a 27.46 27.46 0 0 1 -1.066 -0.794 l -0.24 -0.192 c -3.713 -2.986 -6.657 -7.066 -8.056 -11.693 c -1.467 -4.8 -1.15 -10.185 1.4 -14.556 m -15.982 29.224 c -2.252 3.376 -2.473 7.568 -0.9 11.296 c 1.648 3.957 5.025 7.062 8.966 8.533 c 0.162 0.062 0.325 0.117 0.5 0.173 l 0.216 0.07 c 0.232 0.074 0.463 0.16 0.702 0.206 c 8.516 2.722 11.516 0.722 13.516 -0.278 c -4 -1 -6 0 -11 -3 c -2 -1 -2 -1 -3 -2 a 15.62 15.62 0 0 1 -0 0 a 15.81 15.81 0 0 1 -0 -0 C 24 41 24 39 24 32");
            }
            10% {
                d: path("M20.44 13.78c-5.283 7.733-4.625 17.793-.6 26l.296.585.2.37c.037.072.08.143.118.213.07.13.14.255.2.383l.385.673.22.37.447.712.2.3c.2.32.426.638.648.952.005.008.012.017.018.025.035.05.074.1.1.15.192.27.4.536.6.8l.222.288.545.682.208.254a31.65 31.65 0 0 0 .76.884l.016.016c.01.013.02.02.03.033a23.73 23.73 0 0 0 .772.83l.248.254.617.616.252.244a34.49 34.49 0 0 0 .845.783l.16.14.767.66.318.258.64.5.342.265.978.715c.025.017.047.035.072.052.23.16.463.315.697.47l.302.205 1.092.68.302.173.82.468c.15.082.303.16.453.238l.586.3.135.066.24.118.93.438.197.1a32.93 32.93 0 0 0 1.084.459l.264.106 1.023.386.128.046a34.62 34.62 0 0 0 1.14.38l.275.084c.4.12.775.263 1.177.34C67.457 62.6 74.88 42.218 74.88 42.218c-6.233 8.27-17.296 10.45-27.778 8.023-.397-.1-.782-.217-1.17-.334l-.292-.1c-.378-.118-.754-.243-1.126-.373l-.155-.057a35.02 35.02 0 0 1-.993-.375l-.28-.112a31.57 31.57 0 0 1-1.072-.454l-.214-.096-.904-.43-.26-.128a30.9 30.9 0 0 1-.7-.363l-.467-.25a26.89 26.89 0 0 1-.838-.479l-.283-.16c-.368-.22-.732-.45-1.092-.68-.1-.065-.196-.134-.295-.2l-.777-.526-.25-.18-.735-.54-.326-.25-.663-.528-.296-.24-.825-.7c-.028-.025-.06-.05-.1-.077-.294-.263-.583-.533-.868-.804l-.244-.24-.624-.622-.244-.25a31.33 31.33 0 0 1-.765-.824c-.012-.014-.026-.027-.038-.04a31.49 31.49 0 0 1-.776-.9l-.203-.246-.56-.703-.205-.26-.645-.875c-5.82-8.085-7.9-19.235-3.26-28.393M36.84 7.264c-3.82 5.6-3.613 13.094-.633 19.016a24.87 24.87 0 0 0 1.69 2.873c.572.835 1.207 1.83 1.967 2.5.275.3.563.6.857.906.074.077.15.15.226.227a25.21 25.21 0 0 0 .876.829c.012.01.023.022.036.032a26.31 26.31 0 0 0 1.031.87l.232.184a25.13 25.13 0 0 0 1.07.796.6.6 0 0 0 .03.023c.16.113.325.22.488.328.078.052.152.107.23.156a21.65 21.65 0 0 0 .793.495l.112.066.7.4c.082.047.166.088.25.132l.5.258c.025.013.05.023.074.035.337.17.676.33 1.023.485.074.033.15.063.226.095.277.12.557.236.84.347l.36.134a26.33 26.33 0 0 0 .77.273l.348.113c.367.117.73.263 1.113.328 19.725 3.328 24.28-12.14 24.28-12.14-4.105 6.02-12.054 8.894-20.538 6.652a21.09 21.09 0 0 1-1.117-.33c-.113-.035-.224-.072-.336-.1a22.36 22.36 0 0 1-.781-.274l-.353-.134c-.283-.1-.563-.225-.84-.345-.076-.033-.152-.063-.227-.098a19.53 19.53 0 0 1-1.03-.487c-.174-.087-.345-.178-.516-.268l-.298-.156a20.05 20.05 0 0 1-.653-.375l-.156-.1a25.46 25.46 0 0 1-.79-.492c-.08-.052-.158-.1-.238-.162l-.512-.345a27.46 27.46 0 0 1-1.066-.794l-.24-.192c-3.713-2.986-6.657-7.066-8.056-11.693-1.467-4.8-1.15-10.185 1.4-14.556m10.648-.38c-2.252 3.376-2.473 7.568-.9 11.296 1.648 3.957 5.025 7.062 8.966 8.533.162.062.325.117.5.173l.216.07c.232.074.463.16.702.206 10.892 2.143 13.846-5.692 14.632-6.845-2.588 3.795-6.937 4.706-12.273 3.387-.42-.105-.885-.26-1.3-.406a15.62 15.62 0 0 1-1.533-.649 15.81 15.81 0 0 1-2.688-1.671C52.167 12.8 49.2 5.762 52.316.03")
            }
            90% {
                d: path("M20.44 13.78c-5.283 7.733-4.625 17.793-.6 26l.296.585.2.37c.037.072.08.143.118.213.07.13.14.255.2.383l.385.673.22.37.447.712.2.3c.2.32.426.638.648.952.005.008.012.017.018.025.035.05.074.1.1.15.192.27.4.536.6.8l.222.288.545.682.208.254a31.65 31.65 0 0 0 .76.884l.016.016c.01.013.02.02.03.033a23.73 23.73 0 0 0 .772.83l.248.254.617.616.252.244a34.49 34.49 0 0 0 .845.783l.16.14.767.66.318.258.64.5.342.265.978.715c.025.017.047.035.072.052.23.16.463.315.697.47l.302.205 1.092.68.302.173.82.468c.15.082.303.16.453.238l.586.3.135.066.24.118.93.438.197.1a32.93 32.93 0 0 0 1.084.459l.264.106 1.023.386.128.046a34.62 34.62 0 0 0 1.14.38l.275.084c.4.12.775.263 1.177.34C67.457 62.6 74.88 42.218 74.88 42.218c-6.233 8.27-17.296 10.45-27.778 8.023-.397-.1-.782-.217-1.17-.334l-.292-.1c-.378-.118-.754-.243-1.126-.373l-.155-.057a35.02 35.02 0 0 1-.993-.375l-.28-.112a31.57 31.57 0 0 1-1.072-.454l-.214-.096-.904-.43-.26-.128a30.9 30.9 0 0 1-.7-.363l-.467-.25a26.89 26.89 0 0 1-.838-.479l-.283-.16c-.368-.22-.732-.45-1.092-.68-.1-.065-.196-.134-.295-.2l-.777-.526-.25-.18-.735-.54-.326-.25-.663-.528-.296-.24-.825-.7c-.028-.025-.06-.05-.1-.077-.294-.263-.583-.533-.868-.804l-.244-.24-.624-.622-.244-.25a31.33 31.33 0 0 1-.765-.824c-.012-.014-.026-.027-.038-.04a31.49 31.49 0 0 1-.776-.9l-.203-.246-.56-.703-.205-.26-.645-.875c-5.82-8.085-7.9-19.235-3.26-28.393M36.84 7.264c-3.82 5.6-3.613 13.094-.633 19.016a24.87 24.87 0 0 0 1.69 2.873c.572.835 1.207 1.83 1.967 2.5.275.3.563.6.857.906.074.077.15.15.226.227a25.21 25.21 0 0 0 .876.829c.012.01.023.022.036.032a26.31 26.31 0 0 0 1.031.87l.232.184a25.13 25.13 0 0 0 1.07.796.6.6 0 0 0 .03.023c.16.113.325.22.488.328.078.052.152.107.23.156a21.65 21.65 0 0 0 .793.495l.112.066.7.4c.082.047.166.088.25.132l.5.258c.025.013.05.023.074.035.337.17.676.33 1.023.485.074.033.15.063.226.095.277.12.557.236.84.347l.36.134a26.33 26.33 0 0 0 .77.273l.348.113c.367.117.73.263 1.113.328 19.725 3.328 24.28-12.14 24.28-12.14-4.105 6.02-12.054 8.894-20.538 6.652a21.09 21.09 0 0 1-1.117-.33c-.113-.035-.224-.072-.336-.1a22.36 22.36 0 0 1-.781-.274l-.353-.134c-.283-.1-.563-.225-.84-.345-.076-.033-.152-.063-.227-.098a19.53 19.53 0 0 1-1.03-.487c-.174-.087-.345-.178-.516-.268l-.298-.156a20.05 20.05 0 0 1-.653-.375l-.156-.1a25.46 25.46 0 0 1-.79-.492c-.08-.052-.158-.1-.238-.162l-.512-.345a27.46 27.46 0 0 1-1.066-.794l-.24-.192c-3.713-2.986-6.657-7.066-8.056-11.693-1.467-4.8-1.15-10.185 1.4-14.556m10.648-.38c-2.252 3.376-2.473 7.568-.9 11.296 1.648 3.957 5.025 7.062 8.966 8.533.162.062.325.117.5.173l.216.07c.232.074.463.16.702.206 10.892 2.143 13.846-5.692 14.632-6.845-2.588 3.795-6.937 4.706-12.273 3.387-.42-.105-.885-.26-1.3-.406a15.62 15.62 0 0 1-1.533-.649 15.81 15.81 0 0 1-2.688-1.671C52.167 12.8 49.2 5.762 52.316.03")
            }
            95% {
                d: path("M 20.44 13.78 c -5.283 7.733 -4.625 17.793 -0.6 26 l 0.296 0.585 l 0.2 0.37 c 0.037 0.072 0.08 0.143 0.118 0.213 c 0.07 0.13 0.14 0.255 0.2 0.383 l 0.385 0.673 l 0.22 0.37 l 0.447 0.712 l 0.2 0.3 c 0.2 0.32 0.426 0.638 0.648 0.952 c 0.005 0.008 0.012 0.017 0.018 0.025 c 0.035 0.05 0.074 0.1 0.1 0.15 c 0.192 0.27 0.4 0.536 0.6 0.8 l 0.222 0.288 l 0.545 0.682 l 0.208 0.254 a 31.65 31.65 0 0 0 0.76 0.884 l 0.016 0.016 c 0.01 0.013 0.02 0.02 0.03 0.033 a 23.73 23.73 0 0 0 0.772 0.83 l 0.248 0.254 l 0.617 0.616 l 0.252 0.244 a 34.49 34.49 0 0 0 0.845 0.783 l 0.16 0.14 l 0.767 0.66 l 0.318 0.258 l 0.64 0.5 l 0.342 0.265 l 0.978 0.715 c 0.025 0.017 0.047 0.035 0.072 0.052 c 0.23 0.16 0.463 0.315 0.697 0.47 l 0.302 0.205 l 1.092 0.68 l 0.302 0.173 l 0.82 0.468 c 0.15 0.082 0.303 0.16 0.453 0.238 l 0.586 0.3 l 0.135 0.066 l 0.24 0.118 l 0.93 0.438 l 0.197 0.1 a 32.93 32.93 0 0 0 1.084 0.459 l 0.264 0.106 l 1.023 0.386 l 0.128 0.046 a 34.62 34.62 0 0 0 1.14 0.38 l 0.275 0.084 c 0.4 0.12 0.775 0.263 1.177 0.34 C 67.457 62.6 74.88 42.218 74.88 42.218 c -6.233 8.27 -17.296 10.45 -27.778 8.023 c -0.397 -0.1 -0.782 -0.217 -1.17 -0.334 l -0.292 -0.1 c -0.378 -0.118 -0.754 -0.243 -1.126 -0.373 l -0.155 -0.057 a 35.02 35.02 0 0 1 -0.993 -0.375 l -0.28 -0.112 a 31.57 31.57 0 0 1 -1.072 -0.454 l -0.214 -0.096 l -0.904 -0.43 l -0.26 -0.128 a 30.9 30.9 0 0 1 -0.7 -0.363 l -0.467 -0.25 a 26.89 26.89 0 0 1 -0.838 -0.479 l -0.283 -0.16 c -0.368 -0.22 -0.732 -0.45 -1.092 -0.68 c -0.1 -0.065 -0.196 -0.134 -0.295 -0.2 l -0.777 -0.526 l -0.25 -0.18 l -0.735 -0.54 l -0.326 -0.25 l -0.663 -0.528 l -0.296 -0.24 l -0.825 -0.7 c -0.028 -0.025 -0.06 -0.05 -0.1 -0.077 c -0.294 -0.263 -0.583 -0.533 -0.868 -0.804 l -0.244 -0.24 l -0.624 -0.622 l -0.244 -0.25 a 31.33 31.33 0 0 1 -0.765 -0.824 c -0.012 -0.014 -0.026 -0.027 -0.038 -0.04 a 31.49 31.49 0 0 1 -0.776 -0.9 l -0.203 -0.246 l -0.56 -0.703 l -0.205 -0.26 l -0.645 -0.875 c -5.82 -8.085 -7.9 -19.235 -3.26 -28.393 M 36.84 7.264 c -3.82 5.6 -3.613 13.094 -0.633 19.016 a 24.87 24.87 0 0 0 1.69 2.873 c 0.572 0.835 1.207 1.83 1.967 2.5 c 0.275 0.3 0.563 0.6 0.857 0.906 c 0.074 0.077 0.15 0.15 0.226 0.227 a 25.21 25.21 0 0 0 0.876 0.829 c 0.012 0.01 0.023 0.022 0.036 0.032 a 26.31 26.31 0 0 0 1.031 0.87 l 0.232 0.184 a 25.13 25.13 0 0 0 1.07 0.796 a 0.6 0.6 0 0 0 0.03 0.023 c 0.16 0.113 0.325 0.22 0.488 0.328 c 0.078 0.052 0.152 0.107 0.23 0.156 a 21.65 21.65 0 0 0 0.793 0.495 l 0.112 0.066 l 0.7 0.4 c 0.082 0.047 0.166 0.088 0.25 0.132 l 0.5 0.258 c 0.025 0.013 0.05 0.023 0.074 0.035 c 0.337 0.17 0.676 0.33 1.023 0.485 c 0.074 0.033 0.15 0.063 0.226 0.095 c 0.277 0.12 0.557 0.236 0.84 0.347 l 0.36 0.134 a 26.33 26.33 0 0 0 0.77 0.273 l 0.348 0.113 c 0.367 0.117 0.73 0.263 1.113 0.328 c 19.725 3.328 24.28 -12.14 24.28 -12.14 c -4.105 6.02 -12.054 8.894 -20.538 6.652 a 21.09 21.09 0 0 1 -1.117 -0.33 c -0.113 -0.035 -0.224 -0.072 -0.336 -0.1 a 22.36 22.36 0 0 1 -0.781 -0.274 l -0.353 -0.134 c -0.283 -0.1 -0.563 -0.225 -0.84 -0.345 c -0.076 -0.033 -0.152 -0.063 -0.227 -0.098 a 19.53 19.53 0 0 1 -1.03 -0.487 c -0.174 -0.087 -0.345 -0.178 -0.516 -0.268 l -0.298 -0.156 a 20.05 20.05 0 0 1 -0.653 -0.375 l -0.156 -0.1 a 25.46 25.46 0 0 1 -0.79 -0.492 c -0.08 -0.052 -0.158 -0.1 -0.238 -0.162 l -0.512 -0.345 a 27.46 27.46 0 0 1 -1.066 -0.794 l -0.24 -0.192 c -3.713 -2.986 -6.657 -7.066 -8.056 -11.693 c -1.467 -4.8 -1.15 -10.185 1.4 -14.556 m -15.982 29.224 c -2.252 3.376 -2.473 7.568 -0.9 11.296 c 1.648 3.957 5.025 7.062 8.966 8.533 c 0.162 0.062 0.325 0.117 0.5 0.173 l 0.216 0.07 c 0.232 0.074 0.463 0.16 0.702 0.206 c 8.516 2.722 11.516 0.722 13.516 -0.278 c -4 -1 -6 0 -11 -3 c -2 -1 -2 -1 -3 -2 a 15.62 15.62 0 0 1 -0 0 a 15.81 15.81 0 0 1 -0 -0 C 24 41 24 39 24 32");
            }
            100% {
                d: path("M 20.44 13.78 c -5.283 7.733 -4.625 17.793 -0.6 26 l 0.296 0.585 l 0.2 0.37 c 0.037 0.072 0.08 0.143 0.118 0.213 c 0.07 0.13 0.14 0.255 0.2 0.383 l 0.385 0.673 l 0.22 0.37 l 0.447 0.712 l 0.2 0.3 c 0.2 0.32 0.426 0.638 0.648 0.952 c 0.005 0.008 0.012 0.017 0.018 0.025 c 0.035 0.05 0.074 0.1 0.1 0.15 c 0.192 0.27 0.4 0.536 0.6 0.8 l 0.222 0.288 l 0.545 0.682 l 0.208 0.254 a 31.65 31.65 0 0 0 0.76 0.884 l 0.016 0.016 c 0.01 0.013 0.02 0.02 0.03 0.033 a 23.73 23.73 0 0 0 0.772 0.83 l 0.248 0.254 l 0.617 0.616 l 0.252 0.244 a 34.49 34.49 0 0 0 0.845 0.783 l 0.16 0.14 l 0.767 0.66 l 0.318 0.258 l 0.64 0.5 l 0.342 0.265 l 0.978 0.715 c 0.025 0.017 0.047 0.035 0.072 0.052 c 0.23 0.16 0.463 0.315 0.697 0.47 l 0.302 0.205 l 1.092 0.68 l 0.302 0.173 l 0.82 0.468 c 0.15 0.082 0.303 0.16 0.453 0.238 l 0.586 0.3 l 0.135 0.066 l 0.24 0.118 l 0.93 0.438 l 0.197 0.1 a 32.93 32.93 0 0 0 1.084 0.459 l 0.264 0.106 l 1.023 0.386 l 0.128 0.046 a 34.62 34.62 0 0 0 1.14 0.38 l 0.275 0.084 c 0.4 0.12 0.775 0.263 1.177 0.34 C 67.457 62.6 74.88 42.218 74.88 42.218 c -6.233 8.27 -17.296 10.45 -27.778 8.023 c -0.397 -0.1 -0.782 -0.217 -1.17 -0.334 l -0.292 -0.1 c -0.378 -0.118 -0.754 -0.243 -1.126 -0.373 l -0.155 -0.057 a 35.02 35.02 0 0 1 -0.993 -0.375 l -0.28 -0.112 a 31.57 31.57 0 0 1 -1.072 -0.454 l -0.214 -0.096 l -0.904 -0.43 l -0.26 -0.128 a 30.9 30.9 0 0 1 -0.7 -0.363 l -0.467 -0.25 a 26.89 26.89 0 0 1 -0.838 -0.479 l -0.283 -0.16 c -0.368 -0.22 -0.732 -0.45 -1.092 -0.68 c -0.1 -0.065 -0.196 -0.134 -0.295 -0.2 l -0.777 -0.526 l -0.25 -0.18 l -0.735 -0.54 l -0.326 -0.25 l -0.663 -0.528 l -0.296 -0.24 l -0.825 -0.7 c -0.028 -0.025 -0.06 -0.05 -0.1 -0.077 c -0.294 -0.263 -0.583 -0.533 -0.868 -0.804 l -0.244 -0.24 l -0.624 -0.622 l -0.244 -0.25 a 31.33 31.33 0 0 1 -0.765 -0.824 c -0.012 -0.014 -0.026 -0.027 -0.038 -0.04 a 31.49 31.49 0 0 1 -0.776 -0.9 l -0.203 -0.246 l -0.56 -0.703 l -0.205 -0.26 l -0.645 -0.875 c -5.82 -8.085 -7.9 -19.235 -3.26 -28.393 M 22 22 c -3.82 5.6 -3.613 13.094 -0.633 19.016 a 24.87 24.87 0 0 0 1.69 2.873 c 0.572 0.835 1.207 1.83 1.967 2.5 c 0.275 0.3 0.563 0.6 0.857 0.906 c 0.074 0.077 0.15 0.15 0.226 0.227 a 25.21 25.21 0 0 0 0.876 0.829 c 0.012 0.01 0.023 0.022 0.036 0.032 a 26.31 26.31 0 0 0 1.031 0.87 l 0.232 0.184 a 25.13 25.13 0 0 0 1.07 0.796 a 0.6 0.6 0 0 0 0.03 0.023 c 0.16 0.113 0.325 0.22 0.488 0.328 c 0.078 0.052 0.152 0.107 0.23 0.156 a 21.65 21.65 0 0 0 0.793 0.495 l 0.112 0.066 l 0.7 0.4 c 0.082 0.047 0.166 0.088 0.25 0.132 l 0.5 0.258 c 0.025 0.013 0.05 0.023 0.074 0.035 c 0.337 0.17 0.676 0.33 1.023 0.485 c 0.074 0.033 0.15 0.063 0.226 0.095 c 0.277 0.12 0.557 0.236 0.84 0.347 l 0.36 0.134 a 26.33 26.33 0 0 0 0.77 0.273 l 0.348 0.113 c 0.367 0.117 0.73 0.263 1.113 0.328 c 19.725 3.328 22.791 -2.901 22.791 -2.901 c -6 2 -11 2 -18 -1 a 21.09 21.09 0 0 1 -0 -1 c -1 -0 -0 1 -1 0 a 22.36 22.36 0 0 1 -2 -1 l 0 0 c 0.228 -0.052 -0.563 -0.225 -0.84 -0.345 c -0.076 -0.033 -0.152 -0.063 -0.227 -0.098 a 19.53 19.53 0 0 1 -1.03 -0.487 c -0.174 -0.087 -0.345 -0.178 -0.516 -0.268 l -0.298 -0.156 a 20.05 20.05 0 0 1 -0.653 -0.375 l -0.156 -0.1 a 25.46 25.46 0 0 1 -0.79 -0.492 c -0.08 -0.052 -0.158 -0.1 -0.238 -0.162 l -0.512 -0.345 a 27.46 27.46 0 0 1 -1.066 -0.794 l -0.24 -0.192 c -3.713 -2.986 -7.434 -6.186 -9.434 -11.186 c -1.467 -4.8 -0.378 -7.493 -1 -9 m 2 8 c -2.252 3.376 -2.473 7.568 -0.9 11.296 c 1.648 3.957 5.025 7.062 8.966 8.533 c 0.162 0.062 0.325 0.117 0.5 0.173 l 0.216 0.07 c 0.232 0.074 0.463 0.16 0.702 0.206 c 10.892 2.143 11.516 -1.278 12.516 -1.278 c -5 -0 -5 1 -10 -1 c 0 -0 -0.885 -0.26 -1.3 -0.406 a 15.62 15.62 0 0 1 -1.533 -0.649 a 15.81 15.81 0 0 1 -2.688 -1.671 C 26 40 25 41 24 32")
            }
        }
    </style>
    <g transform="matrix(.945094 0 0 .945094 6.301403 4.347014)">
        <path class="hid" d="M20.44 13.78c-5.283 7.733-4.625 17.793-.6 26l.296.585.2.37c.037.072.08.143.118.213.07.13.14.255.2.383l.385.673.22.37.447.712.2.3c.2.32.426.638.648.952.005.008.012.017.018.025.035.05.074.1.1.15.192.27.4.536.6.8l.222.288.545.682.208.254a31.65 31.65 0 0 0 .76.884l.016.016c.01.013.02.02.03.033a23.73 23.73 0 0 0 .772.83l.248.254.617.616.252.244a34.49 34.49 0 0 0 .845.783l.16.14.767.66.318.258.64.5.342.265.978.715c.025.017.047.035.072.052.23.16.463.315.697.47l.302.205 1.092.68.302.173.82.468c.15.082.303.16.453.238l.586.3.135.066.24.118.93.438.197.1a32.93 32.93 0 0 0 1.084.459l.264.106 1.023.386.128.046a34.62 34.62 0 0 0 1.14.38l.275.084c.4.12.775.263 1.177.34C67.457 62.6 74.88 42.218 74.88 42.218c-6.233 8.27-17.296 10.45-27.778 8.023-.397-.1-.782-.217-1.17-.334l-.292-.1c-.378-.118-.754-.243-1.126-.373l-.155-.057a35.02 35.02 0 0 1-.993-.375l-.28-.112a31.57 31.57 0 0 1-1.072-.454l-.214-.096-.904-.43-.26-.128a30.9 30.9 0 0 1-.7-.363l-.467-.25a26.89 26.89 0 0 1-.838-.479l-.283-.16c-.368-.22-.732-.45-1.092-.68-.1-.065-.196-.134-.295-.2l-.777-.526-.25-.18-.735-.54-.326-.25-.663-.528-.296-.24-.825-.7c-.028-.025-.06-.05-.1-.077-.294-.263-.583-.533-.868-.804l-.244-.24-.624-.622-.244-.25a31.33 31.33 0 0 1-.765-.824c-.012-.014-.026-.027-.038-.04a31.49 31.49 0 0 1-.776-.9l-.203-.246-.56-.703-.205-.26-.645-.875c-5.82-8.085-7.9-19.235-3.26-28.393M36.84 7.264c-3.82 5.6-3.613 13.094-.633 19.016a24.87 24.87 0 0 0 1.69 2.873c.572.835 1.207 1.83 1.967 2.5.275.3.563.6.857.906.074.077.15.15.226.227a25.21 25.21 0 0 0 .876.829c.012.01.023.022.036.032a26.31 26.31 0 0 0 1.031.87l.232.184a25.13 25.13 0 0 0 1.07.796.6.6 0 0 0 .03.023c.16.113.325.22.488.328.078.052.152.107.23.156a21.65 21.65 0 0 0 .793.495l.112.066.7.4c.082.047.166.088.25.132l.5.258c.025.013.05.023.074.035.337.17.676.33 1.023.485.074.033.15.063.226.095.277.12.557.236.84.347l.36.134a26.33 26.33 0 0 0 .77.273l.348.113c.367.117.73.263 1.113.328 19.725 3.328 24.28-12.14 24.28-12.14-4.105 6.02-12.054 8.894-20.538 6.652a21.09 21.09 0 0 1-1.117-.33c-.113-.035-.224-.072-.336-.1a22.36 22.36 0 0 1-.781-.274l-.353-.134c-.283-.1-.563-.225-.84-.345-.076-.033-.152-.063-.227-.098a19.53 19.53 0 0 1-1.03-.487c-.174-.087-.345-.178-.516-.268l-.298-.156a20.05 20.05 0 0 1-.653-.375l-.156-.1a25.46 25.46 0 0 1-.79-.492c-.08-.052-.158-.1-.238-.162l-.512-.345a27.46 27.46 0 0 1-1.066-.794l-.24-.192c-3.713-2.986-6.657-7.066-8.056-11.693-1.467-4.8-1.15-10.185 1.4-14.556m10.648-.38c-2.252 3.376-2.473 7.568-.9 11.296 1.648 3.957 5.025 7.062 8.966 8.533.162.062.325.117.5.173l.216.07c.232.074.463.16.702.206 10.892 2.143 13.846-5.692 14.632-6.845-2.588 3.795-6.937 4.706-12.273 3.387-.42-.105-.885-.26-1.3-.406a15.62 15.62 0 0 1-1.533-.649 15.81 15.81 0 0 1-2.688-1.671C52.167 12.8 49.2 5.762 52.316.03" fill="#0868ac"/>
        <g fill="#131b28">
            <path d="M26.576 74.06l-.738 2.616.738-2.615zm3.796 5.678l-.813-.005.813.005zm-.2 3.906l-4.872.018 4.872-.018zm1.02-3.9l-.814-.005.814.005zm-.582 3.568l.85-3.237-.85 3.237zm17.93-14.907l-1.58 7.433 1.58-7.433zm-4.065 0l-1.2 5.553 1.2-5.553z"/>
            <path d="M48.26 68.07h-3.38c-.188 0-.374.15-.414.334l-2.4 11.107c-.04.183-.226.333-.413.333H39.26c-2.368 0-2.094-1.637-1.6-3.88l.015-.068.287-1.53.124-.63 1.092-5.332c.038-.184-.085-.335-.273-.335h-3.47a.44.44 0 0 0-.412.334l-1.563 7.414c-.86 3.924-.632 7.666 4.04 7.783l.135.003h7.332c.188 0 .373-.15.413-.334l3.162-14.866c.04-.184-.083-.334-.27-.334zm13.487 11.813c.188 0 .3.15.273.334l-.328 1.605m-.328 1.606l.328-1.606-.328 1.606zm-.412.338l-6.23.03 6.23-.03z"/>
            <path d="M52.704 77.817c-.003-.176.197-.478.385-.478l-.422-.007c-.2 1.914.037.485.037.485zm2.326 5.978h-.065.065zm6.717-3.912c.188 0 .3.15.273.334l-.382 1.866M56.63 83.8h-.014.014zm-.83-.006h-.048.048zm-.253.001h-.08.08zm-.247 0h-.07.07zm.462-.001h-.205.205z"/>
            <path d="M56.617 83.8l-.816.003.816-.003zm4.337-.025l-4.325.026 4.325-.026zm.4-.347l.275-1.344-.275 1.345zm-5.896.367H55.3h.178zm-.495 0h-.24.24zm.257 0h-.2.2zM5.76 77.857l.525-2.328-.6 2.66-.07.334.146-.668zm6.286-9.825H8.333a.45.45 0 0 0-.417.333l-.704 3.1a.26.26 0 0 0 .266.333h3.742c.188 0 .374-.15.414-.333l.68-3.107c.04-.183-.08-.333-.27-.333zm-.808 5.168l-1.1 5.038 1.1-5.038zM.452 89.895l3.062.024c-.904 0-2.397-.017-3.063-.025z"/>
            <path d="M6.8 73.2l-.526 2.328L6.8 73.2zm4.17-.333H7.227a.45.45 0 0 0-.417.333l-1.05 4.656-.146.668-1 4.753a7.16 7.16 0 0 1-.18.657s-.7 2.08-1.874 2.057l-1.165-.022a.45.45 0 0 0-.42.326L.2 89.558a.26.26 0 0 0 .261.336l3.063.025c2.936 0 4.483-1.627 5.476-6.307l2.25-10.4c.04-.183-.082-.333-.27-.333zm53.162 10.738c-.188 0-.3-.15-.27-.334l2.815-13.186m1.367 13.185l1.14-5.628-1.14 5.628z"/>
            <path d="M63.903 83.438c-.023-.092-.01-.317.03-.5l1.336-6.26-1.408 6.593c-.04.184.082.334.27.334h.342c-.188 0-.548-.075-.57-.167zm3.92.092c-.102.04-.34.075-.528.075h.342a.44.44 0 0 0 .41-.335l.068-.334c-.037.184-.2.553-.3.594zm.79-3.074l.503-2.484-.503 2.484zm11.108-9.488l.155.64c.043.183-.076.332-.263.333"/>
            <path d="M68.112 82.936l.5-2.48-.5 2.48zM79.568 70.3l.153.656-.153-.656zm-10.452 7.672l.138-.664.537-2.515-.608 2.848-.067.33zm-2.393-8.104l-.117.55-1.336 6.26 1.408-6.593.045-.216z"/>
            <path d="M79.877 71.608l-.155-.64-.23-1c-.304-1.18-1.196-1.863-3.134-1.863l-8.92-.006a.44.44 0 0 0-.412.334l-.138.653-.2.987-2.744 12.853c-.04.184-.053.4-.03.5s.383.167.57.167h2.82c.188 0 .425-.034.528-.075s.254-.4.3-.594l1.07-5.294 1.145-5.364c.04-.183.225-.332.412-.333l8.873-.004c.187 0 .306-.15.263-.333zM91.3 65.815l-.683.003h-2.84a.73.73 0 0 0-.534.282l-6.28 9.2c-.106.155-.227.132-.27-.05l-.462-2.027a.45.45 0 0 0-.417-.333h-4.037c-.188 0-.3.147-.248.328l1.8 6.338c.052.18.055.477.01.66l-.8 3.067a.25.25 0 0 0 .257.331h4c.188 0 .38-.15.426-.33l.8-3.067a2.04 2.04 0 0 1 .29-.604L92.518 66.08c.113-.15.052-.272-.136-.27l-1.07.007zm-32.076 7.937c-.024.2-.212.35-.4.35h-5.12c-.177 0-.267-.12-.24-.27l.004-.027.023-.087c.5-1.3 1.485-2.153 3.356-2.153 2.107 0 2.518 1.03 2.375 2.187zm-1.502-5.908c-6.57 0-8.127 3.988-9 8.013-.874 4.103-.798 7.94 6 7.94H55.8l.83-.003 4.326-.026a.44.44 0 0 0 .407-.335l.657-3.212c.038-.184-.085-.334-.273-.334h-6.112c-2.43 0-3.153-.646-2.887-2.545h9.77c.16-.003.305-.1.362-.252.01-.027.02-.056.024-.085 1.45-5.47 1.034-9.157-5.18-9.157zM26.668 73.73l-.092.327c0 .001-.738 2.616-.738 2.616l-.738 2.614a.48.48 0 0 1-.434.328H20.76c-2.962 0-3.683-2.317-2.962-5.734.72-3.495 2.135-5.668 5.05-5.888 3.984-.3 4.78 2.502 3.82 5.736zm2.678 5.685s1.84-4.47 2.26-7.053c.57-3.457-1.16-8.47-7.845-8.47-6.647 0-9.533 4.786-10.634 10-1.1 5.24.342 9.836 6.95 9.8l10.086-.037a.47.47 0 0 0 .427-.332l.85-3.238a.25.25 0 0 0-.255-.332l-1.627-.01c-.16-.001-.25-.104-.232-.24.004-.025.01-.05.02-.076z"/>
            <path d="M62.25 76.424c0 .124-.1.224-.224.224s-.224-.1-.224-.224.1-.224.224-.224.224.1.224.224z"/>
        </g>
    </g>
</svg>