<svg xmlns="http://www.w3.org/2000/svg" viewBox="0 0 630 630">
    <style type="text/css">
        .smove {
            animation: change 20s linear infinite;
            transform-origin: 80% 90%
        }
        @keyframes change {
            0%, 40%, 100% {
                transform: rotate(0deg) translateY(0px);
            }
            10%, 30% {
                transform: rotate(10deg) translateY(0px);
            }
            20% {
                transform: rotate(-5deg) translateY(0px);
            }
            60% {
                transform: rotate(-15deg) translateY(0px);
            }
            65% {
                transform: rotate(-15deg) translateY(0px);
            }
            70% {
                transform: rotate(-20deg) translateY(0px);
            }
            75% {
                transform: rotate(-40deg) translateY(0px);
            }
            90% {
                transform: rotate(-180deg) translateY(-120px);
            }
        }
        .bmove {
            animation: changeb 20s linear infinite;
            transform-origin: 80% 90%
        }
        @keyframes changeb {
            0%, 40%, 60%, 100% {
                transform: rotate(0deg);
            }
            65% {
                transform: rotate(-1deg);
            }
            70% {
                transform: rotate(-4deg);
            }
            75% {
                transform: rotate(-60deg);
            }
            90% {
                transform: rotate(-120deg);
            }
        }
    </style>
    <rect width="630" height="630" fill="#f7df1e"/>
    <path class="smove" d="m 423.2 492.19 c 12.69 20.72 29.2 35.95 58.4 35.95 c 24.53 0 40.2 -12.26 40.2 -29.2 c 0 -20.3 -16.1 -27.49 -43.1 -39.3 l -14.8 -6.35 c -42.72 -18.2 -71.1 -41 -71.1 -89.2 c 0 -44.4 33.83 -78.2 86.7 -78.2 c 37.64 0 64.7 13.1 84.2 47.4 l -46.1 29.6 c -10.15 -18.2 -21.1 -25.37 -38.1 -25.37 c -17.34 0 -28.33 11 -28.33 25.37 c 0 17.76 11 24.95 36.4 35.95 l 14.8 6.34 c 50.3 21.57 78.7 43.56 78.7 93 c 0 53.3 -41.87 82.5 -98.1 82.5 c -54.98 0 -90.5 -26.2 -107.88 -60.54 z"/>
    <path class="bmove" d="m 423.2 492.19 m -209.13 5.13 c 9.3 16.5 17.76 30.45 38.1 30.45 c 19.45 0 31.72 -7.61 31.72 -37.2 v -201.3 h 59.2 v 202.1 c 0 61.3 -35.94 89.2 -88.4 89.2 c -47.4 0 -74.85 -24.53 -88.81 -54.075 z" />
</svg>